<svg version="1" xmlns="http://www.w3.org/2000/svg" width="733.333" height="733.333" viewBox="0 0 550.000000 550.000000"><path d="M0 275v275h550V0H0v275zM273 43.9c0 .5-1 1.1-2.2 1.3-2.2.3-2.3.8-2.6 10.3-.4 12.4.3 16.1 3.3 19.1 3.2 3.2 12.4 3.5 15.5.4 2.8-2.8 3.1-5 2.8-18l-.3-11.5-2.7-.3c-5.6-.7-2.6-2.2 4.2-2.2 7.2 0 8.7.8 4.8 2.5-2.2.9-2.3 1.8-2.9 13.5-.6 14.6-2 18-8.1 20.5-8.2 3.2-16.9.8-20-5.5-1.4-2.7-1.8-6-1.8-14.7 0-12.5-.4-14.3-3.1-14.3-1 0-1.9-.5-1.9-1 0-.6 3.2-1 7.5-1 4.1 0 7.5.4 7.5.9zm44 2.7c6.1 1.1 8 2 10.3 4.4 1.5 1.7 2.7 4 2.7 5.3 0 3.4-3.6 8.6-6.5 9.3-3.1.8-3.1 1.2.1 7.7 3.4 6.8 7.2 11.7 9 11.7.7 0 1.4.4 1.4 1 0 1.5-3.8 1.2-7.6-.6-2.4-1.2-4-3-5.6-6.7-4.6-10.3-5.2-11.2-7.9-11.5-2.4-.3-2.6.1-3.6 5.5-1.1 6-.5 8.3 2.3 8.3.8 0 1.4.6 1.4 1.4 0 1.2-.7 1.2-5.2 0-2.9-.7-6.5-1.4-8-1.4-1.6 0-2.8-.5-2.8-1 0-.6 1.1-1 2.5-1 3.3 0 3.9-1.7 6.5-16 1.2-6.3 2.3-12.3 2.6-13.2.4-1.2-.3-2.2-2-3-3.5-1.5-3.3-3.2.2-2.3 1.5.4 6.1 1.3 10.2 2.1zm-79-.8c0 .5-1.1 1.4-2.4 2-2.8 1.2-2.7.3-.5 18.7 1.7 13.6 1.8 13.8 8.2 13 6.2-.9 7.4-1.7 9.4-6.7.8-2.1 1.9-3.8 2.4-3.8 1.2 0 1.1.8-.2 7-.8 3.5-1.5 5-2.7 5-.9 0-5.1.5-9.2 1s-9.6 1.2-12.2 1.6c-2.9.3-4.8.1-4.8-.5 0-.5 1-1.1 2.3-1.3 1.9-.3 2.2-1 2.5-4.8.1-2.5-.6-9.7-1.5-16-1.8-11.3-1.8-11.5-4.5-11.8-5-.6-3-1.8 4.5-2.9 3.9-.5 7.5-1 8-1.1.4-.1.7.2.7.6zm-25.9 9.1c3.4 3.5 4 9.5 1.2 13.7-1.7 2.7-8.6 6.7-9.7 5.7-1.2-1.2-.6-2.1 1.9-2.7 4-1 5.8-4.7 4.6-9.1-1.5-5.6-3.7-7.5-8.5-7.5-7.1 0-7.1.2-2 15.6 2.5 7.6 5 14.4 5.6 15.1.5.6 2 .9 3.4.7 4.5-.8 2.4 1.3-3.3 3.3-3.2 1.1-6.6 2.4-7.5 2.8-2.5 1-2.3-1.2.1-2.5 2-1 2-1.1 0-7.8-1-3.7-3.1-10.3-4.7-14.7-2.6-7.7-2.9-8-6.2-8.6-1.9-.4-3.3-.7-3-.8.3-.1 4.1-1.4 8.5-3 10.8-4 15.8-4 19.6-.2zm145 2.8c7.1 2.8 9 4.6 4.2 4.1-2.6-.3-3 .2-8 12.7-5.8 14.3-6.3 17-3.3 18 1.1.3 2 1.1 2 1.6 0 1.2.5 1.3-7.8-1.9-7.9-3-9.5-4.6-4.7-4.7 2.9 0 3.2-.5 8.2-12.5 2.8-6.9 5.2-13.3 5.2-14.3.1-1.1-.9-2.7-2.1-3.8-3.1-2.5-1.7-2.4 6.3.8zm25.7 12.2c9.4 5 12.6 8.2 11.7 12.1-.7 3.1-4.9 7-7.6 7-2 0-2 0 0 2.6 4.7 5.9.5 14-7.8 15.1-3.8.5-5.4 0-13.7-4.2-5.2-2.7-9.4-5.2-9.4-5.6 0-.4 1.4-.6 3.2-.5 3.1.1 3.4-.2 10-12.4 7-13.1 7.8-15.4 5.3-16.4-.8-.3-1.5-1-1.5-1.7 0-1.3-.6-1.5 9.8 4zm28.8 16.8c5.5 4.7 7.1 7.3 3.4 5.3-2.4-1.3-3.2-.9-7.9 4.3-12.3 13.5-13.9 18.8-7.6 25.2 2.8 2.7 4.4 3.5 7.3 3.5 3.3 0 4.5-.8 11.9-8.5 9.2-9.5 10.3-11.7 7.7-14.6-.9-1-1.5-2.2-1.1-2.5.6-.7 10.7 7.6 10.7 8.8 0 .4-1.2.5-2.8.2-2.4-.5-3.6.4-10.4 7.9-8.5 9.4-13.2 12.2-18.3 11.3-4.7-.9-10.9-5.7-12.9-10.1-2.6-5.5-1.1-9.3 7.9-20 7.2-8.5 8.7-11.6 6.5-13-1.1-.7-1.4-2.5-.4-2.5.3 0 3 2.1 6 4.7zm-280.3 7.4c2.2 4 2.2 5.6-.1 3.6-1-1-2.4-1.7-3.1-1.7-1.8 0-9.1 5.9-9.1 7.3 0 .7 1.9 3.4 4.3 6l4.2 4.8 3.8-3.2c3.3-2.7 3.8-3.6 3.3-6.1-.8-3.8.3-3.5 4.3 1.3 3.5 4.2 3.6 5.8.3 4-1.5-.8-2.6-.4-5.5 2-2.1 1.7-3.7 3.5-3.7 4 0 1.4 8.1 9.9 9.4 9.9.7 0 3.2-1.7 5.5-3.7 4.1-3.5 4.3-3.9 3.8-8-.6-5.4.9-5.3 3.1.1l1.5 3.9-3.4 3c-1.9 1.6-6.7 5.8-10.7 9.4-4 3.6-7.6 6.3-7.9 5.9-.3-.3.1-1.4 1-2.4 1-1 1.7-2.6 1.7-3.5 0-2-18.7-23.7-20.4-23.7-.7 0-1.7.5-2.4 1.2-.6.6-1.5.8-1.9.4-.4-.4.8-1.9 2.7-3.4 1.9-1.5 6.4-5.3 10-8.4 3.6-3.1 6.7-5.7 7-5.8.3 0 1.3 1.4 2.3 3.1zm159.7 7.4c41.1 5.1 75.9 22.8 105.2 53.3 16.2 17 28.6 36.7 36.7 58.7 8 21.8 10.6 36.5 10.5 60.5-.1 29.6-5.2 51.1-18.4 77.5-8.9 17.8-17.8 30.2-31 43.5-15.2 15.3-27.3 24.2-45.6 33.4-14.4 7.3-25 11.1-41.4 14.9-12.9 3-14.4 3.1-36 3.1-25.3.1-34.6-1.3-55-8-56.9-18.9-100.8-66.6-114.5-124.7-3.6-15.3-4.8-29.9-4.2-48.2 1-24.9 6.1-44.6 17.7-68.3 20.8-42.3 57.4-74 102.6-88.7 9.4-3.1 25.8-6.5 37.4-7.8 8.6-.9 24.6-.6 36 .8zm158.9 18.1c2.6 1.5 6.5 6.4 7.5 9.4.3.9-.7 2.3-2.9 3.7-3.8 2.4-4.4 1.6-1.9-2.2 1.4-2.1 1.4-2.6 0-5.4-2.7-5.1-9-5.4-11.6-.6-1.1 2.1-1.2 3.6-.2 8.4 1.7 8.3 1.5 10.6-1.3 13.9-5.3 6.3-13.3 4.5-19.2-4.2l-3.3-4.8 3.2-3.9c3.5-4.3 5.6-4.3 3.3.1-2.1 4.1-1.9 7.5.8 10.6 2.9 3.4 7.3 3.6 9.9.4 1.7-2.1 1.8-3.4 1.2-11.6l-.7-9.3 3.1-3c3.5-3.5 7.8-4.1 12.1-1.5zM346.3 469.2c.7 4.3-.4 5-2.1 1.3-1-2.1-1.9-2.5-5.1-2.5-4.7 0-7.1 2-7.1 5.9 0 3.9 3.4 6.5 10.5 8.1 7.6 1.8 11.5 5.3 11.5 10.4 0 6.5-7.9 12.6-16.3 12.6-1.9 0-2.9-.9-4.5-4.3-2.4-5.1-1.5-5.8 2.6-1.7 3.2 3.1 5.4 3.6 9.6 2 6.1-2.3 5.4-9.7-1.2-12.3-2.1-.8-5.2-1.8-6.9-2.2-1.8-.3-4.6-1.9-6.3-3.5-2.4-2.2-3-3.6-3-6.8 0-6 3.2-9.2 10.6-10.7 3.2-.7 6.2-1 6.5-.6.4.3.9 2.3 1.2 4.3zm-119.8.6c.6.4 1 1.6 1 2.7s.3 9 .8 17.5c.7 15.3.8 15.5 3.5 17.7 3.4 2.9 2.5 2.8-6.8-.1-7-2.3-7.7-2.8-4-3 1.2-.1 1.5-1.5 1.5-6.5v-6.4l-5.3-1.5c-5.9-1.6-5.3-2-10.5 6-1.9 2.8-1.9 2.8.7 3.9 4.9 2.3 1.5 2.7-4.9.6-6.9-2.2-8.3-3.7-3.6-3.7 2.5 0 4-1.4 10.3-9.3 4.1-5 8.9-11.3 10.8-14 3.3-4.6 4.5-5.4 6.5-3.9zm95.5 2.8c0 .3-.9 1.3-2 2.2-1.9 1.7-1.9 1.9-.4 11.2 2.1 12.6 1.5 18.2-2.2 22.1-5.2 5.4-15.2 6.3-20.1 1.7-2.8-2.6-3.9-6-6.1-19.3-1.5-8.5-2-10-3.7-10.3-4.5-.8-3.3-2 3-3.1 7.2-1.3 9-.9 6 1.3-1.7 1.2-1.8 1.9-.6 10.2 2.2 15.8 4.9 20.4 12.1 20.4 9.5-.1 11.7-4.9 9-20.2-.9-5.8-2.1-11.1-2.4-11.7-.4-.6-1.8-1.1-3.2-1.1-4.3 0-2.5-1.8 2.9-2.8 6.8-1.2 7.7-1.3 7.7-.6zM261.5 490c5.5 8.2 10.3 15 10.8 15 .4 0 .7-1.9.7-4.3 0-2.3.3-7.9.7-12.5l.6-8.3-3.1-1.1c-4.7-1.8-3.9-3.2 1.4-2.4 2.6.3 5.7.6 7 .6 1.3 0 2.4.4 2.4 1 0 .5-.9 1-1.9 1-1.1 0-2.2.4-2.5.9-.3.4-1.1 8.3-1.7 17.5-1.1 14.4-1.4 16.6-2.9 16.6-1.1 0-5.5-5.8-12.1-15.8l-10.4-15.7-.6 6.5c-.3 3.6-.5 9.6-.5 13.5.1 6.1.3 7 2.1 7.3 5.2 1 3.3 2.2-3.3 2.2-7.4 0-8.9-.8-5-2.5 2.7-1.2 3.4-4.7 3.9-20 .4-10.5.3-11-1.9-12.1-3.9-1.9-3.7-2.4 1.4-2.4h4.9l10 15z"/><path d="M312.5 55.6c-1.9 8.6-1.6 9.4 4.3 9.4 4.5 0 7.2-3 7.2-8 0-4.1-2.6-8-5.4-8-.8 0-2.1-.3-2.9-.6-1.1-.4-1.9 1.2-3.2 7.2zM378.1 77.5c-1.7 3-3.1 5.7-3.1 6 0 .9 5.9 3.5 8 3.5 3 0 6-3.5 6-7 0-3.2-4-8-6.6-8-.6 0-2.6 2.5-4.3 5.5zM370.7 91.5c-3.3 6.7-3.4 9-.4 10.9 4.7 3 6.5 2.9 9.7-.3 3.3-3.2 4.1-8.4 1.8-11.3-1.7-2-5.9-4.8-7.3-4.8-.6 0-2.3 2.5-3.8 5.5zM265.5 161.2c-3.9 5.7-7.1 10.6-7.3 11-.2.5 1.4.8 3.6.8h3.9l.7 45.6c.3 25.2.5 45.9.3 46.1-.4.3-75.2-45.1-77.2-46.8-.6-.6-.3-2 .8-3.8l1.6-2.8-8.2-.6c-9-.8-17.7-.9-17.7-.3 0 .1 2.5 5.6 5.6 12.1l5.6 11.8 1.6-2.6c.9-1.5 2-2.7 2.3-2.7.8 0 77.9 44.6 79 45.7.7.7-59.9 37.2-73.8 44.6l-3.4 1.8-1.2-3c-.6-1.7-1.5-3.1-2-3.1-.4 0-3.2 5.1-6.2 11.2l-5.4 11.3 4.2.7c2.3.3 8 .7 12.5.7l8.4.1-2-3.2-2-3.1 5.1-3.2c16.3-9.9 66.6-41.1 69-42.7 1.6-1.1 3-1.9 3.2-1.7.2.2-.1 18.4-.5 40.4-.5 22-.9 42.3-1 45.2 0 5-.1 5.2-3 5.5l-2.9.3 6.2 9.7c3.4 5.3 6.4 9.7 6.7 9.7.3.1 3.3-4.3 6.7-9.7l6.2-9.7-3.4-.3-3.5-.3v-45.5c0-25.1.4-45.4.8-45.2 1.7.7 70.8 44.1 72 45.3 1.2 1.1 1.1 1.7-.3 3.9l-1.7 2.6h12.1c7.6 0 12.1-.4 12.1-1 0-1.8-7.3-19-8.1-19-.4 0-1.7 1.2-2.8 2.6l-2 2.6-22.3-13.5c-12.3-7.5-29.6-18-38.6-23.5l-16.3-10 27.3-16.2c15-9 32.8-19.5 39.4-23.5l12.2-7.3 2.4 2.5 2.4 2.4 4.7-10.2c2.6-5.6 4.6-10.3 4.5-10.4-.2-.1-5.6-.6-12.1-.9l-11.7-.7 2.1 3.6c1.2 2 2 3.7 1.8 3.9-2.8 1.9-75 45.7-76.3 46.2-.8.3-1-12.6-.6-45.3l.5-45.8 3.3-.3c1.7-.2 3.2-.5 3.2-.8 0-.5-10.3-17.1-12.2-19.7-1.3-1.7-2-1-8.3 8.5zM217.7 480.5l-3.8 5.5 2.3.9c7.3 2.7 6.9 3 6.6-4.8-.2-3.9-.5-7.1-.8-7.1-.3.1-2.2 2.5-4.3 5.5z"/></svg>